<svg xmlns="http://www.w3.org/2000/svg" width="128" height="128" viewBox="0 0 128 128">
<defs>
 <radialGradient id="core" cx="35%" cy="25%" r="80%"><stop offset="0" stop-color="#28366D"/><stop offset=".55" stop-color="#171B45"/><stop offset="1" stop-color="#0A0D25"/></radialGradient>
 <linearGradient id="rim" x1="0" y1="0" x2="1" y2="1"><stop stop-color="#5CEBFF"/><stop offset=".48" stop-color="#FFD36A"/><stop offset="1" stop-color="#FF6FD8"/></linearGradient>
 <filter id="glow"><feGaussianBlur stdDeviation="3" result="b"/><feMerge><feMergeNode in="b"/><feMergeNode in="SourceGraphic"/></feMerge></filter>
</defs>
<g filter="url(#glow)"><circle cx="64" cy="64" r="43" fill="url(#core)" stroke="url(#rim)" stroke-width="3"/>
        <circle cx="64" cy="64" r="34" fill="none" stroke="#FFD36A" stroke-opacity=".22" stroke-width="2"/>
        <path d="M43 42h42v46H43Z" fill="none" stroke="#F5FAFF" stroke-width="4"/><path d="M43 48H33c0 14 7 20 18 20M85 48h10c0 14-7 20-18 20M52 88h24M58 94h12" fill="none" stroke="#F5FAFF" stroke-width="4" stroke-linecap="round"/><path d="M64 49l4 8 9 1-6 6 2 9-9-4-9 4 2-9-6-6 9-1Z" fill="none" stroke="#F5FAFF" stroke-width="3"/>
        <path d="M94 30l3 7 7 3-7 3-3 7-3-7-7-3 7-3Z" fill="#FFD36A" opacity=".95"/></g>
</svg>